<svg width="100%" viewBox="0 0 680 1080" xmlns="http://www.w3.org/2000/svg" style="background:#1a1a1a; font-family: -apple-system, BlinkMacSystemFont, 'Segoe UI', sans-serif;">
<title>7-inch LaClawClaw complete parts breakdown</title>
<desc>Exploded view diagram showing all 9 component groups: 2 injection molds, 4 sourced components, and 3 soft goods assemblies for the 7-inch (17.8cm) LaClawClaw designer collectible figure.</desc>
<defs>
<marker id="arrow" viewBox="0 0 10 10" refX="8" refY="5" markerWidth="6" markerHeight="6" orient="auto-start-reverse"><path d="M2 1L8 5L2 9" fill="none" stroke="context-stroke" stroke-width="1.5" stroke-linecap="round" stroke-linejoin="round"/></marker>
</defs>

<style>
text { fill: #c2c0b6; }
text.th { font-size: 14px; font-weight: 500; fill: #e0ded6; }
text.ts { font-size: 12px; font-weight: 400; fill: #9c9a92; }
line.arr { stroke: #9c9a92; stroke-width: 1.5; }
line.leader { stroke: #9c9a92; stroke-width: 0.5; stroke-dasharray: 3 3; }
.teal-box { fill: #085041; stroke: #5DCAA5; stroke-width: 0.5; }
.teal-box-text { fill: #9FE1CB; }
.teal-box-sub { fill: #5DCAA5; }
.gray-box { fill: #444441; stroke: #888780; stroke-width: 0.5; }
.gray-box-text { fill: #D3D1C7; }
.purple-box { fill: #3C3489; stroke: #AFA9EC; stroke-width: 0.5; }
.purple-box-text { fill: #CECBF6; }
.purple-box-sub { fill: #AFA9EC; }
.coral-box { fill: #712B13; stroke: #F0997B; stroke-width: 0.5; }
.coral-box-text { fill: #F5C4B3; }
.coral-box-sub { fill: #F0997B; }
.summary-box { fill: #04342C; stroke: #5DCAA5; stroke-width: 0.5; }
</style>

<text class="th" x="340" y="36" text-anchor="middle">7" (17.8cm) LaClawClaw — complete parts breakdown</text>
<text class="ts" x="340" y="56" text-anchor="middle">2 molds + 4 sourced components + 3 soft goods</text>

<!-- Ring -->
<rect class="gray-box" x="280" y="80" width="120" height="36" rx="6"/>
<text class="th gray-box-text" x="340" y="100" text-anchor="middle" dominant-baseline="central">Ring</text>
<text class="ts" x="420" y="92" text-anchor="start">Keychain split ring</text>
<text class="ts" x="420" y="108" text-anchor="start">Sourced, metal, clips to loop</text>

<line x1="340" y1="116" x2="340" y2="140" class="arr" marker-end="url(#arrow)"/>

<!-- Antennae -->
<rect class="gray-box" x="240" y="140" width="80" height="36" rx="6"/>
<text class="th gray-box-text" x="280" y="160" text-anchor="middle" dominant-baseline="central">Ant. L</text>
<rect class="gray-box" x="360" y="140" width="80" height="36" rx="6"/>
<text class="th gray-box-text" x="400" y="160" text-anchor="middle" dominant-baseline="central">Ant. R</text>
<text class="ts" x="460" y="150" text-anchor="start">Antennae (2x or 4x)</text>
<text class="ts" x="460" y="166" text-anchor="start">Varies by character</text>

<line x1="340" y1="176" x2="340" y2="200" class="arr" marker-end="url(#arrow)"/>

<!-- Scalp cap -->
<rect class="teal-box" x="215" y="200" width="250" height="56" rx="10"/>
<text class="th teal-box-text" x="340" y="222" text-anchor="middle" dominant-baseline="central">Scalp cap</text>
<text class="ts teal-box-sub" x="340" y="242" text-anchor="middle" dominant-baseline="central">Mold 1 · PVC</text>
<text class="ts" x="480" y="212" text-anchor="start">4x antenna sockets (molded in)</text>
<text class="ts" x="480" y="228" text-anchor="start">Keychain loop (sewn fabric tab)</text>
<text class="ts" x="480" y="244" text-anchor="start">Surface texture per SKU</text>
<line class="leader" x1="465" y1="225" x2="478" y2="225"/>
<text class="ts" x="200" y="212" text-anchor="end">Parting line at equator</text>
<text class="ts" x="200" y="228" text-anchor="end">Hidden under fur collar</text>
<line class="leader" x1="215" y1="225" x2="202" y2="225"/>

<!-- Tongue into groove -->
<text class="ts" x="340" y="276" text-anchor="middle">Tongue into groove</text>
<line x1="340" y1="256" x2="340" y2="264" stroke="#9c9a92" stroke-width="0.5"/>
<line x1="340" y1="282" x2="340" y2="300" class="arr" marker-end="url(#arrow)"/>

<!-- D-pad eyes -->
<rect class="gray-box" x="140" y="300" width="120" height="56" rx="6"/>
<text class="th gray-box-text" x="200" y="320" text-anchor="middle" dominant-baseline="central">D-pad eyes (2x)</text>
<text class="ts" style="fill:#888780" x="200" y="340" text-anchor="middle" dominant-baseline="central">ABS · matte black</text>
<text class="ts" x="126" y="310" text-anchor="end">Sourced · 25mm wide</text>
<text class="ts" x="126" y="326" text-anchor="end">8mm · 3D protruding</text>
<line class="leader" x1="140" y1="320" x2="130" y2="320"/>

<!-- Face plate -->
<rect class="teal-box" x="300" y="300" width="200" height="56" rx="10"/>
<text class="th teal-box-text" x="400" y="320" text-anchor="middle" dominant-baseline="central">Face plate</text>
<text class="ts teal-box-sub" x="400" y="340" text-anchor="middle" dominant-baseline="central">Mold 2 · PVC</text>
<text class="ts" x="516" y="310" text-anchor="start">Eye sockets (2x recess)</text>
<text class="ts" x="516" y="326" text-anchor="start">Groove channel, upper rim</text>
<text class="ts" x="516" y="342" text-anchor="start">Grin + teeth molded in</text>
<line class="leader" x1="500" y1="325" x2="514" y2="325"/>
<text class="ts" x="60" y="362" text-anchor="start">L/R split mold</text>
<text class="ts" x="60" y="378" text-anchor="start">Hidden at plush boundary</text>

<!-- Eyes + faceplate merge -->
<path d="M200 356 L200 380 L340 380" fill="none" stroke="#9c9a92" stroke-width="0.5"/>
<path d="M400 356 L400 380 L340 380" fill="none" stroke="#9c9a92" stroke-width="0.5"/>
<line x1="340" y1="380" x2="340" y2="410" class="arr" marker-end="url(#arrow)"/>
<text class="ts" x="354" y="396" text-anchor="start">Glued into neck opening</text>

<!-- Plush fur collar -->
<rect class="purple-box" x="230" y="410" width="220" height="44" rx="8"/>
<text class="th purple-box-text" x="340" y="434" text-anchor="middle" dominant-baseline="central">Plush fur collar</text>
<text class="ts" x="466" y="434" text-anchor="start">Polyester · hides seam</text>

<line x1="340" y1="454" x2="340" y2="478" class="arr" marker-end="url(#arrow)"/>

<!-- Plush body -->
<rect class="coral-box" x="215" y="478" width="250" height="56" rx="10"/>
<text class="th coral-box-text" x="340" y="498" text-anchor="middle" dominant-baseline="central">Plush body</text>
<text class="ts coral-box-sub" x="340" y="518" text-anchor="middle" dominant-baseline="central">Polyester + iron wire armature</text>

<!-- Left claw -->
<rect class="coral-box" x="80" y="490" width="100" height="36" rx="18"/>
<text class="th coral-box-text" x="130" y="510" text-anchor="middle" dominant-baseline="central">L claw</text>
<line x1="180" y1="508" x2="213" y2="508" class="arr" marker-end="url(#arrow)"/>

<!-- Right claw -->
<rect class="coral-box" x="500" y="490" width="100" height="36" rx="18"/>
<text class="th coral-box-text" x="550" y="510" text-anchor="middle" dominant-baseline="central">R claw</text>
<line x1="500" y1="508" x2="467" y2="508" class="arr" marker-end="url(#arrow)"/>

<text class="ts" x="60" y="545" text-anchor="start">PU leather claws (2x)</text>
<text class="ts" x="60" y="559" text-anchor="start">Sewn · embossed shell texture</text>
<line class="leader" x1="130" y1="526" x2="80" y2="540"/>
<text class="ts" x="480" y="540" text-anchor="start">Neck opening for head</text>
<text class="ts" x="480" y="556" text-anchor="start">95% poly, 5% wire</text>
<line class="leader" x1="465" y1="515" x2="478" y2="540"/>

<line x1="340" y1="534" x2="340" y2="568" class="arr" marker-end="url(#arrow)"/>
<text class="ts" x="354" y="556" text-anchor="start">Dressed onto body</text>

<!-- Clothes -->
<rect class="purple-box" x="230" y="568" width="220" height="56" rx="8"/>
<text class="th purple-box-text" x="340" y="588" text-anchor="middle" dominant-baseline="central">Clothes</text>
<text class="ts purple-box-sub" x="340" y="608" text-anchor="middle" dominant-baseline="central">Jacket + shirt + pants</text>
<text class="ts" x="466" y="588" text-anchor="start">Sewn fabric, dressed on</text>
<text class="ts" x="466" y="604" text-anchor="start">Varies by character</text>

<line x1="340" y1="624" x2="340" y2="656" class="arr" marker-end="url(#arrow)"/>

<!-- Shoes -->
<rect class="gray-box" x="260" y="656" width="160" height="44" rx="8"/>
<text class="th gray-box-text" x="340" y="680" text-anchor="middle" dominant-baseline="central">Shoes / boots</text>

<line x1="340" y1="700" x2="340" y2="732" class="arr" marker-end="url(#arrow)"/>

<!-- Dog tag -->
<rect class="gray-box" x="220" y="732" width="240" height="44" rx="8"/>
<text class="th gray-box-text" x="340" y="756" text-anchor="middle" dominant-baseline="central">Dog tag + chain accessory</text>
<text class="ts" x="476" y="746" text-anchor="start">Sourced · metal chain + pendant</text>
<text class="ts" x="476" y="762" text-anchor="start">Clips to pants loop</text>

<!-- BOM Summary -->
<rect class="summary-box" x="100" y="820" width="480" height="230" rx="12"/>
<text class="th" style="fill:#9FE1CB" x="340" y="850" text-anchor="middle">Bill of materials — 9 component groups</text>

<text class="th" style="fill:#e0ded6" x="140" y="882" text-anchor="start">Injection molded (2 molds)</text>
<text class="ts" x="140" y="900" text-anchor="start">Scalp cap (PVC) · Face plate (PVC)</text>

<text class="th" style="fill:#e0ded6" x="140" y="932" text-anchor="start">Sourced components (4)</text>
<text class="ts" x="140" y="950" text-anchor="start">D-pad cross eyes (ABS) · Antennae · Keychain ring · Dog tag chain</text>

<text class="th" style="fill:#e0ded6" x="140" y="982" text-anchor="start">Soft goods (3)</text>
<text class="ts" x="140" y="1000" text-anchor="start">Plush body + fur collar · PU leather claws · Clothes + shoes</text>

<text class="ts" x="340" y="1036" text-anchor="middle">Production: Zhongshan, China · Target shipment: Q3 2026</text>
</svg>